{"title":"The.Houses.October.Built(2014)720p.WEB-DL.H264.AAC.Raven","uid":11232302,"size":721245740,"categoryP":"video","categoryS":"movies","magnet":"?xt=urn:btih:c7ce33b5c07fef769dca9bcd32443cf27fc117d3&amp;dn=The.Houses.October.Built%282014%29720p.WEB-DL.H264.AAC.Raven&amp;tr=udp%3A%2F%2Ftracker.openbittorrent.com%3A80&amp;tr=udp%3A%2F%2Fopen.demonii.com%3A1337&amp;tr=udp%3A%2F%2Ftracker.coppersurfer.tk%3A6969&amp;tr=udp%3A%2F%2Fexodus.desync.com%3A6969","seeders":0,"leechers":1,"uploader":"Raven1969","files":-1,"time":1413555460,"description":"The.Houses.October.Built(2014)720p.WEB-DL.H264.AAC.Raven.Mp4\n\n\n\nEnglish subs included.\n\n\n\nScreen images:\n\n\n &lt;a href=&quot;\nhttp://i.imgur.com/WzmMx8M.png&quot; rel=&quot;nofollow&quot; target=&quot;_NEW&quot;&gt;\nhttp://i.imgur.com/WzmMx8M.png&lt;/a&gt;\n\n &lt;a href=&quot;\nhttp://i.imgur.com/TKQSkfM.png&quot; rel=&quot;nofollow&quot; target=&quot;_NEW&quot;&gt;\nhttp://i.imgur.com/TKQSkfM.png&lt;/a&gt;\n\n &lt;a href=&quot;\nhttp://i.imgur.com/hD6gYiT.png&quot; rel=&quot;nofollow&quot; target=&quot;_NEW&quot;&gt;\nhttp://i.imgur.com/hD6gYiT.png&lt;/a&gt;\n\n &lt;a href=&quot;\nhttp://i.imgur.com/GuMijcI.png&quot; rel=&quot;nofollow&quot; target=&quot;_NEW&quot;&gt;\nhttp://i.imgur.com/GuMijcI.png&lt;/a&gt;\n\n &lt;a href=&quot;\nhttp://i.imgur.com/5sE1aV4.png&quot; rel=&quot;nofollow&quot; target=&quot;_NEW&quot;&gt;\nhttp://i.imgur.com/5sE1aV4.png&lt;/a&gt;\n\n\n\n\nStoryline:\n\nBeneath the fake blood and cheap masks of countless haunted house attractions across the country, there are whispers of truly terrifying alternatives. Looking to find an authentic, blood-curdling good fright for Halloween, five friends set off on a road trip in an RV to track down these underground Haunts. Just when their search seems to reach a dead end, strange and disturbing things start happening and it becomes clear that the Haunt has come to them...\n\nGeneral\nFormat                                   : MPEG-4\nFormat profile                           : Base Media\nCodec ID                                 : isom\nFile size                                : 683 MiB\nDuration                                 : 1h 31mn\nOverall bit rate mode                    : Variable\nOverall bit rate                         : 1 045 Kbps\nEncoded date                             : UTC 2014-10-17 01:43:19\nTagged date                              : UTC 2014-10-17 01:43:19\n\nVideo\nID                                       : 1\nFormat                                   : AVC\nFormat/Info                              : Advanced Video Codec\nFormat profile                           : &lt;a class=&quot;__cf_email__&quot; href=&quot;/cdn-cgi/l/email-protection&quot; data-cfemail=&quot;f3bb9a949bb3bfc7ddc3&quot;&gt;[email&amp;#160;protected]&lt;/a&gt;&lt;script cf-hash='f9e31' type=&quot;text/javascript&quot;&gt;\n/* &lt;![CDATA[ */!function(){try{var t=&quot;currentScript&quot;in document?document.currentScript:function(){for(var t=document.getElementsByTagName(&quot;script&quot;),e=t.length;e--;)if(t[e].getAttribute(&quot;cf-hash&quot;))return t[e]}();if(t&amp;&amp;t.previousSibling){var e,r,n,i,c=t.previousSibling,a=c.getAttribute(&quot;data-cfemail&quot;);if(a){for(e=&quot;&quot;,r=parseInt(a.substr(0,2),16),n=2;a.length-n;n+=2)i=parseInt(a.substr(n,2),16)^r,e+=String.fromCharCode(i);e=document.createTextNode(e),c.parentNode.replaceChild(e,c)}}}catch(u){}}();/* ]]&gt; */&lt;/script&gt;\nFormat settings, CABAC                   : Yes\nFormat settings, ReFrames                : 9 frames\nCodec ID                                 : avc1\nCodec ID/Info                            : Advanced Video Coding\nDuration                                 : 1h 31mn\nBit rate                                 : 950 Kbps\nMaximum bit rate                         : 7 125 Kbps\nWidth                                    : 1 280 pixels\nHeight                                   : 718 pixels\nDisplay aspect ratio                     : 16:9\nOriginal display aspect ratio            : 16:9\nFrame rate mode                          : Constant\nFrame rate                               : 23.976 fps\nColor space                              : YUV\nChroma subsampling                       : 4:2:0\nBit depth                                : 8 bits\nScan type                                : Progressive\nBits/(Pixel*Frame)                       : 0.043\nStream size                              : 620 MiB (91%)\nWriting library                          : x264 core 132 \nEncoded date                             : UTC 2014-10-17 01:43:19\nTagged date                              : UTC 2014-10-17 01:43:49\n\nAudio\nID                                       : 2\nFormat                                   : AAC\nFormat/Info                              : Advanced Audio Codec\nFormat profile                           : LC\nCodec ID                                 : 40\nDuration                                 : 1h 31mn\nBit rate mode                            : Variable\nBit rate                                 : 92.0 Kbps\nMaximum bit rate                         : 139 Kbps\nChannel(s)                               : 2 channels\nChannel positions                        : Front: L R\nSampling rate                            : 48.0 KHz\nCompression mode                         : Lossy\nStream size                              : 60.1 MiB (9%)\nEncoded date                             : UTC 2014-10-17 00:23:30\nTagged date                              : UTC 2014-10-17 01:43:49\n\n\n\n\nPLEASE  SEED FOR AS LONG AS POSSIBLE TO KEEP THE TORRENT ALIVE :-)","torrent":{"xt":"urn:btih:c7ce33b5c07fef769dca9bcd32443cf27fc117d3","amp;dn":"The.Houses.October.Built%282014%29720p.WEB-DL.H264.AAC.Raven","amp;tr":["udp%3A%2F%2Ftracker.openbittorrent.com%3A80","udp%3A%2F%2Fopen.demonii.com%3A1337","udp%3A%2F%2Ftracker.coppersurfer.tk%3A6969","udp%3A%2F%2Fexodus.desync.com%3A6969"],"infoHash":"c7ce33b5c07fef769dca9bcd32443cf27fc117d3","infoHashBuffer":{"type":"Buffer","data":[199,206,51,181,192,127,239,118,157,202,155,205,50,68,60,242,127,193,23,211]},"announce":[],"urlList":[]}}